<svg width="33" height="33" viewBox="0 0 33 33" fill="none" xmlns="http://www.w3.org/2000/svg">
<path fill-rule="evenodd" clip-rule="evenodd" d="M16.0417 0C7.18229 0 0 7.18229 0 16.0417C0 24.901 7.18229 32.0833 16.0417 32.0833C24.901 32.0833 32.0833 24.901 32.0833 16.0417C32.0833 7.18229 24.901 0 16.0417 0ZM2.91667 16.0417C2.91667 19.0896 3.95646 21.8954 5.69917 24.1237C6.92304 22.5165 8.50194 21.214 10.3125 20.318C12.1231 19.4219 14.1163 18.9566 16.1365 18.9583C18.1305 18.9564 20.0986 19.4097 21.8909 20.2836C23.6833 21.1576 25.2524 22.4291 26.479 24.0012C27.7425 22.344 28.5933 20.4097 28.9609 18.3584C29.3285 16.307 29.2023 14.1977 28.5928 12.2048C27.9833 10.2119 26.908 8.39278 25.4559 6.89797C24.0038 5.40316 22.2166 4.27563 20.2422 3.60866C18.2678 2.94169 16.163 2.75446 14.1019 3.06246C12.0408 3.37046 10.0826 4.16484 8.38945 5.37987C6.6963 6.5949 5.31681 8.19564 4.36513 10.0497C3.41344 11.9037 2.91693 13.9577 2.91667 16.0417ZM16.0417 29.1667C13.0287 29.1712 10.1066 28.1347 7.77 26.2325C8.71052 24.8861 9.96237 23.7868 11.419 23.0281C12.8757 22.2694 14.4941 21.8738 16.1365 21.875C17.7584 21.8737 19.3572 22.2594 20.8001 23C22.243 23.7406 23.4884 24.8148 24.4329 26.1333C22.0781 28.0973 19.1079 29.171 16.0417 29.1667Z" fill="#0D8BFC"/>
</svg>
